# Blender v2.76 (sub 0) OBJ File: ''
# www.blender.org
mtllib cannon.mtl
o Cylinder
v 0.114753 -0.350774 -0.000016
v 0.114753 1.950588 -0.000016
v 0.309843 -0.350774 0.019199
v 0.309843 1.950588 0.019199
v 0.497436 -0.350774 0.076105
v 0.497436 1.950588 0.076105
v 0.670323 -0.350774 0.168514
v 0.670323 1.950588 0.168514
v 0.821860 -0.350774 0.292877
v 0.821860 1.950588 0.292877
v 0.946223 -0.350774 0.444414
v 0.946223 1.950588 0.444414
v 1.038633 -0.350774 0.617301
v 1.038633 1.950588 0.617301
v 1.095538 -0.350774 0.804894
v 1.095538 1.950588 0.804894
v 1.114753 -0.350774 0.999984
v 1.114753 1.950588 0.999984
v 1.095538 -0.350774 1.195074
v 1.095538 1.950588 1.195074
v 1.038633 -0.350774 1.382667
v 1.038633 1.950588 1.382667
v 0.946223 -0.350774 1.555554
v 0.946223 1.950588 1.555554
v 0.821860 -0.350774 1.707091
v 0.821860 1.950588 1.707091
v 0.670323 -0.350774 1.831454
v 0.670323 1.950588 1.831454
v 0.497436 -0.350774 1.923864
v 0.497436 1.950588 1.923864
v 0.309843 -0.350774 1.980769
v 0.309843 1.950588 1.980769
v 0.114753 -0.350774 1.999984
v 0.114753 1.950588 1.999984
v -0.080338 -0.350774 1.980769
v -0.080338 1.950588 1.980769
v -0.267931 -0.350774 1.923863
v -0.267931 1.950588 1.923863
v -0.440818 -0.350774 1.831453
v -0.440818 1.950588 1.831453
v -0.592354 -0.350774 1.707090
v -0.592354 1.950588 1.707090
v -0.716717 -0.350774 1.555554
v -0.716717 1.950588 1.555554
v -0.809127 -0.350774 1.382667
v -0.809127 1.950588 1.382667
v -0.866032 -0.350774 1.195073
v -0.866032 1.950588 1.195073
v -0.885247 -0.350774 0.999983
v -0.885247 1.950588 0.999983
v -0.866032 -0.350774 0.804893
v -0.866032 1.950588 0.804893
v -0.809126 -0.350774 0.617300
v -0.809126 1.950588 0.617300
v -0.716716 -0.350774 0.444413
v -0.716716 1.950588 0.444413
v -0.592353 -0.350774 0.292876
v -0.592353 1.950588 0.292876
v -0.440816 -0.350774 0.168514
v -0.440816 1.950588 0.168514
v -0.267929 -0.350774 0.076104
v -0.267929 1.950588 0.076104
v -0.080336 -0.350774 0.019198
v -0.080336 1.950588 0.019198
v 0.112456 -0.359667 -0.168817
v 0.342069 -0.359667 -0.146202
v 0.342069 1.994243 -0.146202
v 0.112456 1.994243 -0.168817
v 0.562858 -0.359667 -0.079226
v 0.562858 1.994243 -0.079226
v 0.766338 -0.359667 0.029536
v 0.766338 1.994243 0.029536
v 0.944689 -0.359667 0.175906
v 0.944689 1.994243 0.175906
v 1.091059 -0.359667 0.354257
v 1.091059 1.994243 0.354257
v 1.199821 -0.359667 0.557737
v 1.199821 1.994243 0.557737
v 1.266796 -0.359667 0.778526
v 1.266796 1.994243 0.778526
v 1.289411 -0.359667 1.008138
v 1.289411 1.994243 1.008138
v 1.266797 -0.359667 1.237751
v 1.266797 1.994243 1.237751
v 1.199821 -0.359667 1.458539
v 1.199821 1.994243 1.458539
v 1.091059 -0.359667 1.662020
v 1.091059 1.994243 1.662020
v 0.944689 -0.359667 1.840371
v 0.944689 1.994243 1.840371
v 0.766337 -0.359667 1.986741
v 0.766337 1.994243 1.986741
v 0.562857 -0.359667 2.095503
v 0.562857 1.994243 2.095503
v 0.342069 -0.359667 2.162479
v 0.342069 1.994243 2.162479
v 0.112456 -0.359667 2.185094
v 0.112456 1.994243 2.185094
v -0.117157 -0.359667 2.162478
v -0.117157 1.994243 2.162478
v -0.337945 -0.359667 2.095503
v -0.337945 1.994243 2.095503
v -0.541425 -0.359667 1.986740
v -0.541425 1.994243 1.986740
v -0.719777 -0.359667 1.840371
v -0.719777 1.994243 1.840371
v -0.866147 -0.359667 1.662019
v -0.866147 1.994243 1.662019
v -0.974909 -0.359667 1.458539
v -0.974909 1.994243 1.458539
v -1.041884 -0.359667 1.237750
v -1.041884 1.994243 1.237750
v -1.064499 -0.359667 1.008137
v -1.064499 1.994243 1.008137
v -1.041884 -0.359667 0.778525
v -1.041884 1.994243 0.778525
v -0.974908 -0.359667 0.557736
v -0.974908 1.994243 0.557736
v -0.866145 -0.359667 0.354256
v -0.866145 1.994243 0.354256
v -0.719776 -0.359667 0.175904
v -0.719776 1.994243 0.175904
v -0.541424 -0.359667 0.029535
v -0.541424 1.994243 0.029535
v -0.337943 -0.359667 -0.079227
v -0.337943 1.994243 -0.079227
v -0.117154 -0.527730 -0.146202
v -0.117154 1.994243 -0.146202
vn -0.098000 0.000000 0.995200
vn -0.290300 0.000000 0.956900
vn -0.471400 0.000000 0.881900
vn -0.634400 0.000000 0.773000
vn -0.773000 0.000000 0.634400
vn -0.881900 0.000000 0.471400
vn -0.956900 0.000000 0.290300
vn -0.995200 0.000000 0.098000
vn -0.995200 0.000000 -0.098000
vn -0.956900 0.000000 -0.290300
vn -0.881900 0.000000 -0.471400
vn -0.773000 0.000000 -0.634400
vn -0.634400 0.000000 -0.773000
vn -0.471400 0.000000 -0.881900
vn -0.290300 0.000000 -0.956900
vn -0.098000 0.000000 -0.995200
vn 0.098000 0.000000 -0.995200
vn 0.290300 0.000000 -0.956900
vn 0.471400 0.000000 -0.881900
vn 0.634400 0.000000 -0.773000
vn 0.773000 0.000000 -0.634400
vn 0.881900 0.000000 -0.471400
vn 0.956900 0.000000 -0.290300
vn 0.995200 0.000000 -0.098000
vn 0.995200 0.000000 0.098000
vn 0.956900 0.000000 0.290300
vn 0.881900 0.000000 0.471400
vn 0.773000 0.000000 0.634400
vn 0.634400 0.000000 0.773000
vn 0.471400 0.000000 0.881900
vn 0.098000 0.000000 0.995200
vn 0.290300 0.000000 0.956900
vn 0.072600 0.968200 0.239400
vn -0.023000 -0.998800 -0.043000
vn -0.193200 0.968300 0.158500
vn 0.047000 -0.998800 -0.014300
vn -0.109800 0.972500 -0.205500
vn 0.369600 -0.829800 0.418200
vn 0.224800 0.972000 -0.068200
vn -0.046000 -0.998600 0.024600
vn 0.024600 0.967900 0.250000
vn -0.014100 -0.998800 -0.046400
vn -0.219100 0.968700 0.117100
vn 0.049300 -0.998800 -0.004900
vn -0.067300 0.972800 -0.221800
vn 0.235600 0.971600 -0.023200
vn -0.049500 -0.998700 0.015000
vn -0.004700 -0.998800 -0.048000
vn -0.236000 0.969100 0.071600
vn 0.049800 -0.998700 0.004900
vn -0.022600 0.973000 -0.229700
vn 0.237600 0.971100 0.023400
vn -0.051100 -0.998700 0.005000
vn 0.004700 -0.998800 -0.047900
vn -0.243500 0.969600 0.024000
vn 0.048300 -0.998700 0.014700
vn 0.022600 0.973100 -0.229200
vn 0.230500 0.970600 0.069900
vn -0.050600 -0.998700 -0.005000
vn 0.014000 -0.998800 -0.046100
vn -0.241400 0.970100 -0.023800
vn -0.005200 -0.998600 0.052700
vn 0.044900 -0.998700 0.024000
vn 0.066800 0.973200 -0.220300
vn -0.024700 0.967800 0.250600
vn 0.214300 0.970000 0.114500
vn -0.048200 -0.998700 -0.014600
vn 0.022700 -0.998800 -0.042500
vn -0.230000 0.970700 -0.069800
vn 0.039700 -0.998700 0.032600
vn 0.108600 0.973100 -0.203200
vn -0.015400 -0.998600 0.050700
vn 0.189400 0.969500 0.155500
vn -0.044000 -0.998800 -0.023500
vn -0.073200 0.967700 0.241200
vn 0.030600 -0.998800 -0.037300
vn -0.210200 0.971200 -0.112300
vn 0.032900 -0.998700 0.040100
vn 0.146600 0.973000 -0.178600
vn -0.024900 -0.998600 0.046700
vn 0.156700 0.969000 0.190900
vn -0.038200 -0.998800 -0.031400
vn -0.118700 0.967800 0.222000
vn 0.037500 -0.998800 -0.030800
vn -0.182700 0.971700 -0.149900
vn 0.024600 -0.998600 0.046100
vn 0.179300 0.972700 -0.147200
vn -0.033500 -0.998600 0.040800
vn 0.117300 0.968600 0.219400
vn -0.031100 -0.998800 -0.037900
vn -0.159200 0.968000 0.194000
vn 0.043000 -0.998800 -0.023000
vn -0.148800 0.972100 -0.181300
vn -0.176600 -0.825000 0.536900
vn 0.205700 0.972400 -0.110000
vn -0.040600 -0.998600 0.033300
usemtl None
s off
f 1//1 3//1 4//1 2//1
f 3//2 5//2 6//2 4//2
f 5//3 7//3 8//3 6//3
f 7//4 9//4 10//4 8//4
f 9//5 11//5 12//5 10//5
f 11//6 13//6 14//6 12//6
f 13//7 15//7 16//7 14//7
f 15//8 17//8 18//8 16//8
f 17//9 19//9 20//9 18//9
f 19//10 21//10 22//10 20//10
f 21//11 23//11 24//11 22//11
f 23//12 25//12 26//12 24//12
f 25//13 27//13 28//13 26//13
f 27//14 29//14 30//14 28//14
f 29//15 31//15 32//15 30//15
f 31//16 33//16 34//16 32//16
f 33//17 35//17 36//17 34//17
f 35//18 37//18 38//18 36//18
f 37//19 39//19 40//19 38//19
f 39//20 41//20 42//20 40//20
f 41//21 43//21 44//21 42//21
f 43//22 45//22 46//22 44//22
f 45//23 47//23 48//23 46//23
f 47//24 49//24 50//24 48//24
f 49//25 51//25 52//25 50//25
f 51//26 53//26 54//26 52//26
f 53//27 55//27 56//27 54//27
f 55//28 57//28 58//28 56//28
f 57//29 59//29 60//29 58//29
f 59//30 61//30 62//30 60//30
f 63//31 1//31 2//31 64//31
f 61//32 63//32 64//32 62//32
f 65//17 68//17 67//17 66//17
f 66//18 67//18 70//18 69//18
f 69//19 70//19 72//19 71//19
f 71//20 72//20 74//20 73//20
f 73//21 74//21 76//21 75//21
f 75//22 76//22 78//22 77//22
f 77//23 78//23 80//23 79//23
f 79//24 80//24 82//24 81//24
f 81//25 82//25 84//25 83//25
f 83//26 84//26 86//26 85//26
f 85//27 86//27 88//27 87//27
f 87//28 88//28 90//28 89//28
f 89//29 90//29 92//29 91//29
f 91//30 92//30 94//30 93//30
f 93//32 94//32 96//32 95//32
f 95//31 96//31 98//31 97//31
f 97//1 98//1 100//1 99//1
f 99//2 100//2 102//2 101//2
f 101//3 102//3 104//3 103//3
f 103//4 104//4 106//4 105//4
f 105//5 106//5 108//5 107//5
f 107//6 108//6 110//6 109//6
f 109//7 110//7 112//7 111//7
f 111//8 112//8 114//8 113//8
f 113//9 114//9 116//9 115//9
f 115//10 116//10 118//10 117//10
f 117//11 118//11 120//11 119//11
f 119//12 120//12 122//12 121//12
f 121//13 122//13 124//13 123//13
f 123//14 124//14 126//14 125//14
f 127//16 128//16 68//16 65//16
f 125//15 126//15 128//15 127//15
f 62//33 64//33 128//33 126//33
f 29//34 27//34 91//34 93//34
f 10//35 12//35 76//35 74//35
f 47//36 45//36 109//36 111//36
f 28//37 30//37 94//37 92//37
f 1//38 63//38 127//38 65//38
f 46//39 48//39 112//39 110//39
f 13//40 11//40 75//40 77//40
f 64//41 2//41 68//41 128//41
f 31//42 29//42 93//42 95//42
f 12//43 14//43 78//43 76//43
f 49//44 47//44 111//44 113//44
f 30//45 32//45 96//45 94//45
f 48//46 50//46 114//46 112//46
f 15//47 13//47 77//47 79//47
f 33//48 31//48 95//48 97//48
f 14//49 16//49 80//49 78//49
f 51//50 49//50 113//50 115//50
f 32//51 34//51 98//51 96//51
f 50//52 52//52 116//52 114//52
f 17//53 15//53 79//53 81//53
f 35//54 33//54 97//54 99//54
f 16//55 18//55 82//55 80//55
f 53//56 51//56 115//56 117//56
f 34//57 36//57 100//57 98//57
f 52//58 54//58 118//58 116//58
f 19//59 17//59 81//59 83//59
f 37//60 35//60 99//60 101//60
f 18//61 20//61 84//61 82//61
f 3//62 1//62 65//62 66//62
f 55//63 53//63 117//63 119//63
f 36//64 38//64 102//64 100//64
f 2//65 4//65 67//65 68//65
f 54//66 56//66 120//66 118//66
f 21//67 19//67 83//67 85//67
f 39//68 37//68 101//68 103//68
f 20//69 22//69 86//69 84//69
f 57//70 55//70 119//70 121//70
f 38//71 40//71 104//71 102//71
f 5//72 3//72 66//72 69//72
f 56//73 58//73 122//73 120//73
f 23//74 21//74 85//74 87//74
f 4//75 6//75 70//75 67//75
f 41//76 39//76 103//76 105//76
f 22//77 24//77 88//77 86//77
f 59//78 57//78 121//78 123//78
f 40//79 42//79 106//79 104//79
f 7//80 5//80 69//80 71//80
f 58//81 60//81 124//81 122//81
f 25//82 23//82 87//82 89//82
f 6//83 8//83 72//83 70//83
f 43//84 41//84 105//84 107//84
f 24//85 26//85 90//85 88//85
f 61//86 59//86 123//86 125//86
f 42//87 44//87 108//87 106//87
f 9//88 7//88 71//88 73//88
f 60//89 62//89 126//89 124//89
f 27//90 25//90 89//90 91//90
f 8//91 10//91 74//91 72//91
f 45//92 43//92 107//92 109//92
f 26//93 28//93 92//93 90//93
f 63//94 61//94 125//94 127//94
f 44//95 46//95 110//95 108//95
f 11//96 9//96 73//96 75//96
