# This file uses centimeters as units for non-parametric coordinates.

mtllib minuteCog.mtl
g default
v -0.559987 0.334998 -0.422883
v -0.631007 0.334998 -0.562267
v -0.741623 0.334998 -0.672883
v -0.881007 0.334998 -0.743902
v -1.035516 0.334998 -0.768374
v -1.190024 0.334998 -0.743902
v -1.329408 0.334998 -0.672882
v -1.440024 0.334998 -0.562266
v -1.511044 0.334998 -0.422882
v -1.535516 0.334998 -0.268374
v -1.511044 0.334998 -0.113865
v -1.440024 0.334998 0.025519
v -1.329408 0.334998 0.136135
v -1.190024 0.334998 0.207155
v -1.035516 0.334998 0.231626
v -0.881007 0.334998 0.207154
v -0.741623 0.334998 0.136135
v -0.631007 0.334998 0.025519
v -0.559987 0.334998 -0.113865
v -0.535516 0.334998 -0.268374
v -1.035516 0.334998 -0.268374
v -0.631007 0.334998 -0.562267
v -0.559987 0.334998 -0.422882
v -0.881007 0.334998 -0.743902
v -0.741623 0.334998 -0.672883
v -1.190024 0.334998 -0.743902
v -1.035516 0.334998 -0.768374
v -1.440024 0.334998 -0.562267
v -1.329408 0.334998 -0.672882
v -1.535516 0.334998 -0.268374
v -1.511044 0.334998 -0.422882
v -1.440024 0.334998 0.025519
v -1.511044 0.334998 -0.113865
v -1.190024 0.334998 0.207155
v -1.329408 0.334998 0.136135
v -0.881007 0.334998 0.207154
v -1.035516 0.334998 0.231626
v -0.631007 0.334998 0.025519
v -0.741623 0.334998 0.136135
v -0.535516 0.334998 -0.268374
v -0.559987 0.334998 -0.113865
v -0.464188 0.334998 -0.647265
v -0.393169 0.334998 -0.507881
v -0.796009 0.334998 -0.910721
v -0.656625 0.334998 -0.839701
v -1.219312 0.334998 -0.928822
v -1.064804 0.334998 -0.953294
v -1.572412 0.334998 -0.694654
v -1.461796 0.334998 -0.805270
v -1.720435 0.334998 -0.297662
v -1.695963 0.334998 -0.452171
v -1.606843 0.334998 0.110517
v -1.677862 0.334998 -0.028867
v -1.275022 0.334998 0.373973
v -1.414407 0.334998 0.302953
v -0.851719 0.334998 0.392074
v -1.006227 0.334998 0.416546
v -0.498619 0.334998 0.157907
v -0.609235 0.334998 0.268523
v -0.350596 0.334998 -0.239085
v -0.375068 0.334998 -0.084577
vt 0.648603 0.107966
vt 0.656250 0.156250
vt 0.437500 0.312500
vt 0.462500 0.312500
vt 0.487500 0.312500
vt 0.512500 0.312500
vt 0.537500 0.312500
vt 0.562500 0.312500
vt 0.587500 0.312500
vt 0.612500 0.312500
vt 0.375000 0.688440
vt 0.387500 0.688440
vt 0.437500 0.688440
vt 0.462500 0.688440
vt 0.487500 0.688440
vt 0.512500 0.688440
vt 0.537500 0.688440
vt 0.562500 0.688440
vt 0.587500 0.688440
vt 0.612500 0.688440
vt 0.648603 0.795466
vt 0.626409 0.751908
vt 0.591842 0.717341
vt 0.548284 0.695147
vt 0.500000 0.687500
vt 0.451716 0.695147
vt 0.408159 0.717341
vt 0.373591 0.751909
vt 0.351397 0.795466
vt 0.343750 0.843750
vt 0.351397 0.892034
vt 0.373591 0.935591
vt 0.408159 0.970159
vt 0.451716 0.992353
vt 0.500000 1.000000
vt 0.548284 0.992353
vt 0.591841 0.970159
vt 0.626409 0.935591
vt 0.648603 0.892034
vt 0.656250 0.843750
vt 0.500000 0.837500
vt 0.387500 0.688440
vt 0.375000 0.688440
vt 0.412500 0.688440
vt 0.400000 0.688440
vt 0.437500 0.312500
vt 0.437500 0.688440
vt 0.425000 0.688440
vt 0.462500 0.312500
vt 0.462500 0.688440
vt 0.450000 0.688440
vt 0.487500 0.312500
vt 0.487500 0.688440
vt 0.475000 0.688440
vt 0.512500 0.312500
vt 0.512500 0.688440
vt 0.500000 0.688440
vt 0.537500 0.312500
vt 0.537500 0.688440
vt 0.525000 0.688440
vt 0.562500 0.312500
vt 0.562500 0.688440
vt 0.550000 0.688440
vt 0.587500 0.312500
vt 0.587500 0.688440
vt 0.575000 0.688440
vt 0.612500 0.312500
vt 0.612500 0.688440
vt 0.600000 0.688440
vt 0.648603 0.107966
vt 0.656250 0.156250
vt 0.387500 0.688440
vt 0.375000 0.688440
vt 0.412500 0.688440
vt 0.400000 0.688440
vt 0.437500 0.688440
vt 0.425000 0.688440
vt 0.462500 0.688440
vt 0.450000 0.688440
vt 0.487500 0.688440
vt 0.475000 0.688440
vt 0.512500 0.688440
vt 0.500000 0.688440
vt 0.537500 0.688440
vt 0.525000 0.688440
vt 0.562500 0.688440
vt 0.550000 0.688440
vt 0.587500 0.688440
vt 0.575000 0.688440
vt 0.612500 0.688440
vt 0.600000 0.688440
vn 0.000000 1.000000 0.000000
vn 0.000000 1.000000 0.000000
vn 0.000000 1.000000 -0.000000
vn 0.000000 1.000000 0.000000
vn 0.000000 1.000000 0.000000
vn 0.000000 1.000000 0.000000
vn 0.000000 1.000000 0.000000
vn 0.000000 1.000000 0.000000
vn 0.000000 1.000000 0.000000
vn 0.000000 1.000000 0.000000
vn 0.000000 1.000000 0.000000
vn 0.000000 1.000000 0.000000
vn 0.000000 1.000000 0.000000
vn 0.000000 1.000000 0.000000
vn 0.000000 1.000000 0.000000
vn 0.000000 1.000000 0.000000
vn 0.000000 1.000000 0.000000
vn 0.000000 1.000000 -0.000000
vn 0.000000 1.000000 -0.000000
vn 0.000000 1.000000 0.000000
vn 0.000000 1.000000 0.000000
vn 0.000000 -0.000000 0.000000
vn 0.000000 -1.000000 0.000000
vn 0.000000 -1.000000 0.000000
vn 0.000000 -0.000000 0.000000
vn 0.000000 0.000000 0.000000
vn 0.000000 0.000000 0.000000
vn 0.000000 0.000000 0.000000
vn 0.000000 0.000000 0.000000
vn 0.000000 -1.000000 0.000000
vn 0.000000 -0.000000 0.000000
vn 0.000000 -0.000000 0.000000
vn 0.000000 -1.000000 0.000000
vn 0.000000 1.000000 0.000000
vn 0.000000 1.000000 0.000000
vn 0.000000 1.000000 0.000000
vn 0.000000 1.000000 0.000000
vn 0.000000 1.000000 0.000000
vn 0.000000 1.000000 0.000000
vn 0.000000 1.000000 0.000000
vn 0.000000 1.000000 0.000000
vn 0.000000 0.000000 0.000000
vn 0.000000 1.000000 0.000000
vn 0.000000 1.000000 0.000000
vn 0.000000 0.000000 0.000000
vn 0.000000 0.000000 0.000000
vn 0.000000 0.000000 0.000000
vn 0.000000 0.000000 0.000000
vn 0.000000 0.000000 0.000000
vn 0.000000 1.000000 0.000000
vn 0.000000 0.000000 0.000000
vn 0.000000 0.000000 0.000000
vn 0.000000 1.000000 0.000000
vn 0.000000 -1.000000 0.000000
vn 0.000000 -1.000000 0.000000
vn 0.000000 -1.000000 0.000000
vn 0.000000 -1.000000 0.000000
vn 0.000000 -1.000000 0.000000
vn 0.000000 -1.000000 0.000000
vn 0.000000 -1.000000 0.000000
vn 0.000000 -1.000000 0.000000
vn 0.000000 1.000000 0.000000
vn 0.000000 1.000000 0.000000
vn 0.000000 1.000000 0.000000
vn 0.000000 1.000000 0.000000
vn 0.000000 1.000000 0.000000
vn 0.000000 1.000000 0.000000
vn 0.000000 1.000000 0.000000
vn 0.000000 1.000000 0.000000
vn 0.000000 1.000000 0.000000
vn 0.000000 1.000000 0.000000
vn 0.000000 1.000000 0.000000
vn 0.000000 1.000000 0.000000
vn 0.000000 1.000000 0.000000
vn 0.000000 1.000000 0.000000
vn 0.000000 1.000000 0.000000
vn 0.000000 1.000000 0.000000
vn 0.000000 1.000000 0.000000
vn 0.000000 1.000000 0.000000
vn 0.000000 1.000000 0.000000
vn 0.000000 1.000000 0.000000
vn 0.000000 1.000000 -0.000000
vn 0.000000 1.000000 -0.000000
vn 0.000000 1.000000 -0.000000
vn 0.000000 1.000000 -0.000000
vn 0.000000 1.000000 -0.000000
vn 0.000000 1.000000 -0.000000
vn 0.000000 1.000000 -0.000000
vn 0.000000 1.000000 -0.000000
vn 0.000000 1.000000 -0.000000
vn 0.000000 1.000000 -0.000000
vn 0.000000 1.000000 -0.000000
vn 0.000000 1.000000 -0.000000
vn 0.000000 1.000000 0.000000
vn 0.000000 1.000000 0.000000
vn 0.000000 1.000000 0.000000
vn 0.000000 1.000000 0.000000
vn 0.000000 1.000000 0.000000
vn 0.000000 1.000000 0.000000
vn 0.000000 1.000000 0.000000
vn 0.000000 1.000000 0.000000
s 1
g pCylinder1
usemtl phong1SG
f 1/39/1 2/38/2 21/41/3
f 2/38/2 3/37/4 21/41/3
f 3/37/4 4/36/5 21/41/3
f 4/36/5 5/35/6 21/41/3
f 5/35/6 6/34/7 21/41/3
f 6/34/7 7/33/8 21/41/3
f 7/33/8 8/32/9 21/41/3
f 8/32/9 9/31/10 21/41/3
f 9/31/10 10/30/11 21/41/3
f 10/30/11 11/29/12 21/41/3
f 11/29/12 12/28/13 21/41/3
f 12/28/13 13/27/14 21/41/3
f 13/27/14 14/26/15 21/41/3
f 14/26/15 15/25/16 21/41/3
f 15/25/16 16/24/17 21/41/3
f 16/24/17 17/23/18 21/41/3
f 17/23/18 18/22/19 21/41/3
f 18/22/19 19/21/20 21/41/3
f 19/21/20 20/40/21 21/41/3
f 20/40/21 1/39/1 21/41/3
s off
f 2/12/22 1/11/23 23/43/24 22/42/25
f 4/3/26 3/13/27 25/47/28 24/46/29
f 6/4/30 5/14/31 27/50/32 26/49/33
f 8/5/34 7/15/35 29/53/36 28/52/37
f 10/6/38 9/16/39 31/56/40 30/55/41
f 12/7/42 11/17/43 33/59/44 32/58/45
f 14/8/46 13/18/47 35/62/48 34/61/49
f 16/9/50 15/19/51 37/65/52 36/64/53
f 18/10/54 17/20/55 39/68/56 38/67/57
f 20/1/58 19/2/59 41/71/60 40/70/61
f 22/42/62 23/43/63 43/73/64 42/72/65
f 24/44/66 25/45/67 45/75/68 44/74/69
f 26/47/70 27/48/71 47/77/72 46/76/73
f 28/50/74 29/51/75 49/79/76 48/78/77
f 30/53/78 31/54/79 51/81/80 50/80/81
f 32/56/82 33/57/83 53/83/84 52/82/85
f 34/59/86 35/60/87 55/85/88 54/84/89
f 36/62/90 37/63/91 57/87/92 56/86/93
f 38/65/94 39/66/95 59/89/96 58/88/97
f 40/68/98 41/69/99 61/91/100 60/90/101
